<?xml version="1.0" encoding="UTF-8" standalone="no"?><svg xmlns="http://www.w3.org/2000/svg" xmlns:xlink="http://www.w3.org/1999/xlink" fill="#fcfcfb" height="38" preserveAspectRatio="xMidYMid meet" version="1" viewBox="0.0 0.0 37.6 37.7" width="38" zoomAndPan="magnify"><g><g id="change1_1"><path d="M28.5,37.7H9.2C4.1,37.7,0,33.6,0,28.5V9.2C0,4.1,4.1,0,9.2,0h19.2c5.1,0,9.2,4.1,9.2,9.2v19.2c0,5.1-4.1,9.2-9.2,9.2ZM9.2,3c-3.4,0-6.2,2.8-6.2,6.2v19.2c0,3.4,2.8,6.2,6.2,6.2h19.2c3.4,0,6.2-2.8,6.2-6.2V9.2c0-3.4-2.8-6.2-6.2-6.2H9.2Z"/><path d="M18.9,31c-6.6,0-11.9-5.3-11.9-11.9s5.3-11.9,11.9-11.9,11.9,5.3,11.9,11.9c0,6.6-5.3,11.9-11.9,11.9ZM18.9,10.1c-5,0-9,4-9,9s4,9,9,9c5,0,9-4,9-9s-4-9-9-9Z"/><path d="M18.9,24.5c-3,0-5.4-2.4-5.4-5.4s2.4-5.4,5.4-5.4,5.4,2.4,5.4,5.4-2.4,5.4-5.4,5.4ZM18.9,16.7c-1.3,0-2.4,1.1-2.4,2.4s1.1,2.4,2.4,2.4,2.4-1.1,2.4-2.4-1.1-2.4-2.4-2.4Z"/><circle cx="29.8" cy="7.9" r="2"/></g></g></svg>