<?xml version="1.0" encoding="UTF-8" standalone="no"?><svg xmlns="http://www.w3.org/2000/svg" xmlns:xlink="http://www.w3.org/1999/xlink" fill="#000000" height="1100.9" preserveAspectRatio="xMidYMid meet" version="1" viewBox="0.0 0.0 1100.9 1100.9" width="1100.9" zoomAndPan="magnify"><defs><clipPath id="a"><path d="M 0 0 L 1100.929688 0 L 1100.929688 1100.929688 L 0 1100.929688 Z M 0 0"/></clipPath></defs><g fill="#fcfcfb"><g clip-path="url(#a)" id="change1_3"><path d="M 550.464844 1022.441406 C 290.210938 1022.441406 78.480469 810.714844 78.480469 550.464844 C 78.480469 290.210938 290.210938 78.480469 550.464844 78.480469 C 810.714844 78.480469 1022.441406 290.210938 1022.441406 550.464844 C 1022.441406 810.714844 810.714844 1022.441406 550.464844 1022.441406 Z M 939.347656 161.582031 C 835.472656 57.710938 697.363281 0.5 550.464844 0.5 C 403.5625 0.5 265.453125 57.710938 161.582031 161.582031 C 57.707031 265.453125 0.5 403.5625 0.5 550.464844 C 0.5 697.363281 57.707031 835.472656 161.582031 939.34375 C 265.453125 1043.21875 403.5625 1100.429688 550.464844 1100.429688 C 697.363281 1100.429688 835.472656 1043.21875 939.347656 939.34375 C 1043.21875 835.472656 1100.429688 697.363281 1100.429688 550.464844 C 1100.429688 403.5625 1043.21875 265.453125 939.347656 161.582031" fill="inherit"/><path d="M 550.464844 78.980469 C 290.488281 78.980469 78.980469 290.488281 78.980469 550.464844 C 78.980469 810.4375 290.488281 1021.941406 550.464844 1021.941406 C 810.4375 1021.941406 1021.941406 810.4375 1021.941406 550.464844 C 1021.941406 290.488281 810.4375 78.980469 550.464844 78.980469 Z M 550.464844 1022.941406 C 289.9375 1022.941406 77.980469 810.988281 77.980469 550.464844 C 77.980469 289.9375 289.9375 77.980469 550.464844 77.980469 C 810.988281 77.980469 1022.941406 289.9375 1022.941406 550.464844 C 1022.941406 810.988281 810.988281 1022.941406 550.464844 1022.941406 Z M 550.464844 1 C 403.695312 1 265.714844 58.148438 161.933594 161.933594 C 58.15625 265.714844 1 403.695312 1 550.464844 C 1 697.230469 58.15625 835.210938 161.933594 938.992188 C 265.714844 1042.769531 403.695312 1099.929688 550.464844 1099.929688 C 697.230469 1099.929688 835.214844 1042.769531 938.992188 938.992188 C 1042.769531 835.214844 1099.929688 697.230469 1099.929688 550.464844 C 1099.929688 403.695312 1042.769531 265.710938 938.992188 161.933594 C 835.214844 58.148438 697.230469 1 550.464844 1 Z M 550.464844 1100.929688 C 403.429688 1100.929688 265.195312 1043.667969 161.226562 939.699219 C 57.257812 835.730469 0 697.496094 0 550.464844 C 0 403.429688 57.257812 265.195312 161.226562 161.226562 C 265.195312 57.261719 403.429688 0 550.464844 0 C 697.496094 0 835.730469 57.261719 939.699219 161.226562 C 1043.671875 265.195312 1100.929688 403.425781 1100.929688 550.464844 C 1100.929688 697.496094 1043.671875 835.730469 939.699219 939.699219 C 835.730469 1043.667969 697.496094 1100.929688 550.464844 1100.929688" fill="inherit"/></g><g id="change1_1"><path d="M 550.457031 318.5 C 612.421875 318.5 670.671875 342.625 714.480469 386.433594 L 742.050781 414.007812 L 797.195312 358.863281 L 769.621094 331.292969 C 711.085938 272.753906 633.25 240.515625 550.457031 240.515625 C 467.664062 240.515625 389.828125 272.753906 331.292969 331.292969 C 272.75 389.835938 240.507812 467.671875 240.511719 550.464844 C 240.511719 633.253906 272.753906 711.085938 331.292969 769.621094 C 389.835938 828.167969 467.671875 860.410156 550.457031 860.410156 C 633.242188 860.410156 711.078125 828.167969 769.621094 769.621094 L 797.195312 742.050781 L 742.050781 686.90625 L 714.480469 714.480469 C 670.664062 758.296875 612.410156 782.425781 550.457031 782.425781 C 488.5 782.425781 430.25 758.296875 386.433594 714.480469 C 342.625 670.671875 318.496094 612.421875 318.492188 550.464844 C 318.492188 488.5 342.621094 430.25 386.433594 386.433594 C 430.242188 342.625 488.492188 318.5 550.457031 318.5" fill="inherit"/></g><g id="change1_2"><path d="M 550.457031 241.015625 C 467.796875 241.015625 390.089844 273.203125 331.644531 331.644531 C 273.195312 390.09375 241.007812 467.804688 241.011719 550.464844 C 241.011719 633.117188 273.199219 710.824219 331.644531 769.269531 C 390.09375 827.71875 467.804688 859.910156 550.457031 859.910156 C 633.113281 859.910156 710.820312 827.71875 769.269531 769.269531 L 796.488281 742.050781 L 742.050781 687.613281 L 714.835938 714.835938 C 670.921875 758.742188 612.546875 782.925781 550.457031 782.925781 C 488.367188 782.925781 429.988281 758.742188 386.082031 714.835938 C 342.175781 670.929688 317.996094 612.554688 317.992188 550.464844 C 317.992188 488.367188 342.171875 429.988281 386.082031 386.078125 C 429.984375 342.175781 488.359375 318 550.457031 318 C 612.554688 318 670.933594 342.175781 714.835938 386.078125 L 742.050781 413.300781 L 796.488281 358.863281 L 769.269531 331.644531 C 710.824219 273.203125 633.117188 241.015625 550.457031 241.015625 Z M 550.457031 860.910156 C 467.535156 860.910156 389.574219 828.613281 330.9375 769.972656 C 272.304688 711.34375 240.011719 633.386719 240.011719 550.464844 C 240.007812 467.539062 272.300781 389.574219 330.9375 330.9375 C 389.570312 272.308594 467.53125 240.015625 550.457031 240.015625 C 633.382812 240.015625 711.34375 272.308594 769.976562 330.9375 L 797.902344 358.863281 L 742.050781 414.714844 L 714.128906 386.785156 C 670.414062 343.074219 612.285156 319 550.457031 319 C 488.628906 319 430.503906 343.074219 386.789062 386.785156 C 343.070312 430.507812 318.992188 488.636719 318.992188 550.464844 C 318.996094 612.289062 343.070312 670.410156 386.789062 714.128906 C 430.507812 757.847656 488.632812 781.925781 550.457031 781.925781 C 612.277344 781.925781 670.40625 757.847656 714.128906 714.128906 L 742.050781 686.203125 L 797.902344 742.050781 L 769.976562 769.972656 C 711.339844 828.613281 633.378906 860.910156 550.457031 860.910156" fill="inherit"/></g></g></svg>