<?xml version="1.0" encoding="UTF-8"?><svg xmlns="http://www.w3.org/2000/svg" xmlns:xlink="http://www.w3.org/1999/xlink" height="500.0" preserveAspectRatio="xMidYMid meet" version="1.0" viewBox="0.0 0.0 314.2 500.0" width="314.2" zoomAndPan="magnify"><defs><clipPath id="a"><path d="M 4 92 L 314.171875 92 L 314.171875 500 L 4 500 Z M 4 92"/></clipPath></defs><g><g clip-path="url(#a)" id="change1_1"><path d="M 292.675781 411.515625 L 292.6875 411.515625 Z M 43.945312 297.144531 C 40.003906 297.144531 36.035156 298.394531 32.671875 300.96875 C 25.765625 306.246094 23.445312 315.785156 27.152344 323.644531 C 40.867188 352.722656 66.585938 405.308594 84.699219 430.761719 L 85.089844 431.3125 C 106.21875 461.332031 140.675781 479.320312 177.285156 479.472656 L 177.773438 479.472656 C 200.9375 479.472656 223.214844 472.519531 242.183594 459.367188 C 260.640625 446.570312 274.753906 428.828125 283.011719 408.050781 L 283.792969 405.625 C 290.328125 384.492188 293.644531 355.648438 293.644531 319.890625 L 293.648438 272.273438 C 293.648438 264.324219 287.183594 257.859375 279.234375 257.859375 L 278.597656 257.859375 C 270.199219 257.859375 263.359375 264.609375 263.300781 272.929688 L 263.300781 317.210938 C 263.300781 322.882812 258.703125 327.476562 253.035156 327.476562 C 247.367188 327.476562 242.773438 322.882812 242.773438 317.210938 L 242.773438 273.03125 C 242.773438 272.972656 242.773438 272.914062 242.773438 272.855469 L 242.773438 249.828125 C 242.773438 241.464844 235.96875 234.65625 227.601562 234.65625 C 219.234375 234.65625 212.429688 241.464844 212.429688 249.828125 L 212.429688 295.792969 C 212.429688 301.460938 207.832031 306.054688 202.164062 306.054688 C 196.496094 306.054688 191.902344 301.460938 191.902344 295.792969 L 191.902344 231.980469 C 191.902344 223.613281 185.09375 216.808594 176.730469 216.808594 C 168.363281 216.808594 161.558594 223.613281 161.558594 231.980469 L 161.328125 281.113281 C 161.300781 286.765625 156.714844 291.328125 151.066406 291.328125 C 151.058594 291.328125 151.054688 291.328125 151.046875 291.328125 C 145.390625 291.320312 140.808594 286.734375 140.800781 281.078125 L 140.628906 127.253906 C 140.628906 119.296875 134.164062 112.832031 126.21875 112.832031 L 125.578125 112.832031 C 117.144531 112.832031 110.28125 119.636719 110.28125 128.003906 L 110.28125 337.292969 C 110.28125 341.601562 107.59375 345.449219 103.550781 346.929688 C 99.507812 348.410156 94.96875 347.214844 92.1875 343.929688 L 58.125 303.71875 C 54.460938 299.390625 49.226562 297.144531 43.945312 297.144531 Z M 177.757812 500 L 177.226562 500 C 133.957031 499.824219 93.253906 478.574219 68.328125 443.160156 L 67.964844 442.652344 C 48.9375 415.910156 22.59375 362.097656 8.585938 332.402344 C 0.78125 315.851562 5.667969 295.773438 20.207031 284.660156 C 36.773438 271.996094 60.308594 274.539062 73.785156 290.449219 L 89.753906 309.300781 L 89.753906 128.003906 C 89.753906 108.316406 105.824219 92.304688 125.578125 92.304688 L 126.21875 92.304688 C 145.480469 92.304688 161.152344 107.976562 161.152344 127.242188 L 161.234375 199.816406 C 165.925781 197.550781 171.183594 196.277344 176.730469 196.277344 C 191.769531 196.277344 204.667969 205.628906 209.917969 218.824219 C 215.132812 215.835938 221.171875 214.128906 227.601562 214.128906 C 244.335938 214.128906 258.417969 225.703125 262.261719 241.265625 C 267.164062 238.753906 272.71875 237.332031 278.597656 237.332031 L 279.234375 237.332031 C 298.5 237.332031 314.175781 253.007812 314.175781 272.273438 L 314.171875 319.890625 C 314.171875 357.742188 310.542969 388.648438 303.382812 411.757812 C 303.371094 411.792969 303.359375 411.832031 303.347656 411.867188 L 302.445312 414.664062 C 302.378906 414.871094 302.304688 415.074219 302.226562 415.277344 C 292.492188 439.976562 275.773438 461.054688 253.878906 476.238281 C 231.457031 491.78125 205.136719 500 177.757812 500" fill="#fff"/></g><g id="change1_2"><path d="M 47.75 134.773438 L 10.265625 134.773438 C 4.59375 134.773438 0 130.175781 0 124.507812 C 0 118.839844 4.59375 114.246094 10.265625 114.246094 L 47.75 114.246094 C 53.417969 114.246094 58.011719 118.839844 58.011719 124.507812 C 58.011719 130.175781 53.417969 134.773438 47.75 134.773438" fill="#fff"/></g><g id="change1_3"><path d="M 71.917969 79.851562 C 69.296875 79.851562 66.675781 78.855469 64.671875 76.859375 L 38.121094 50.398438 C 34.105469 46.398438 34.09375 39.898438 38.097656 35.882812 C 42.097656 31.867188 48.597656 31.859375 52.609375 35.859375 L 79.164062 62.320312 C 83.175781 66.320312 83.1875 72.820312 79.1875 76.835938 C 77.183594 78.847656 74.550781 79.851562 71.917969 79.851562" fill="#fff"/></g><g id="change1_4"><path d="M 127.804688 58.011719 C 122.152344 58.011719 117.5625 53.441406 117.539062 47.785156 L 117.414062 10.300781 C 117.394531 4.628906 121.972656 0.0195312 127.640625 0 C 127.652344 0 127.664062 0 127.675781 0 C 133.328125 0 137.921875 4.570312 137.941406 10.230469 L 138.066406 47.714844 C 138.089844 53.382812 133.507812 57.992188 127.839844 58.011719 C 127.828125 58.011719 127.816406 58.011719 127.804688 58.011719" fill="#fff"/></g><g id="change1_5"><path d="M 182.808594 81.992188 C 180.195312 81.992188 177.589844 81.003906 175.585938 79.023438 C 171.558594 75.035156 171.523438 68.539062 175.511719 64.511719 L 201.882812 37.867188 C 205.871094 33.839844 212.367188 33.804688 216.398438 37.796875 C 220.425781 41.78125 220.460938 48.28125 216.472656 52.308594 L 190.101562 78.949219 C 188.09375 80.976562 185.449219 81.992188 182.808594 81.992188" fill="#fff"/></g><g id="change1_6"><path d="M 204.835938 137.804688 C 199.199219 137.804688 194.613281 133.257812 194.574219 127.613281 C 194.535156 121.945312 199.097656 117.316406 204.769531 117.277344 L 242.253906 117.023438 C 242.273438 117.023438 242.300781 117.019531 242.324219 117.019531 C 247.960938 117.019531 252.546875 121.570312 252.585938 127.214844 C 252.625 132.882812 248.0625 137.511719 242.394531 137.550781 L 204.90625 137.804688 C 204.882812 137.804688 204.859375 137.804688 204.835938 137.804688" fill="#fff"/></g></g></svg>